/* XPM */
static char *e69cb76006e948b2e889a5aaeb448c800cX2wLLz2e7fzPCU[] = {
/* columns rows colors chars-per-pixel */
"16 16 2 1 ",
"  c None",
". c #CCD4E4",
/* pixels */
"                ",
"                ",
"    ........    ",
"    ........    ",
"  ............  ",
"  ............  ",
"  ..  ....  ..  ",
"  ..  ....  ..  ",
"  ............  ",
"  ............  ",
"      ....      ",
"      ....      ",
"      ....      ",
"      ....      ",
"                ",
"                "
};
