/* XPM */
static char *_50458770bf04ccfc07d4e8c92f65916HTWPvk92y6zGBnPq[] = {
/* columns rows colors chars-per-pixel */
"32 32 2 1 ",
"  c None",
". c #CCD4E4",
/* pixels */
"                                ",
"                                ",
"                                ",
"                                ",
"        ................        ",
"        ................        ",
"        ................        ",
"        ................        ",
"    ........................    ",
"    ........................    ",
"    ........................    ",
"    ........................    ",
"    ....    ........    ....    ",
"    ....    ........    ....    ",
"    ....    ........    ....    ",
"    ....    ........    ....    ",
"    ........................    ",
"    ........................    ",
"    ........................    ",
"    ........................    ",
"            ........            ",
"            ........            ",
"            ........            ",
"            ........            ",
"            ........            ",
"            ........            ",
"            ........            ",
"            ........            ",
"                                ",
"                                ",
"                                ",
"                                "
};
